<svg width="96" height="96" viewBox="0 0 96 96" fill="none" xmlns="http://www.w3.org/2000/svg">
<path d="M48.0469 8C26.0229 8 8.09394 25.9135 8.08594 47.9375C8.08194 54.9775 9.92587 61.8503 13.4219 67.9062L8 88L28.9297 83.0547C34.7657 86.2387 41.3354 87.9101 48.0234 87.9141H48.0391C70.0591 87.9141 87.9802 69.9966 87.9922 47.9766C88.0002 37.3006 83.8487 27.2629 76.3047 19.7109C68.7607 12.1629 58.7349 8.004 48.0469 8ZM48.0391 16C56.5831 16.004 64.6124 19.3352 70.6484 25.3672C76.6844 31.4072 80.0002 39.4328 79.9922 47.9688C79.9842 65.5847 65.6552 79.9141 48.0312 79.9141C42.6992 79.9101 37.4176 78.5712 32.7656 76.0312L30.0703 74.5625L27.0938 75.2656L19.2188 77.125L21.1406 69.9844L22.0078 66.7812L20.3516 63.9062C17.5596 59.0742 16.0819 53.5495 16.0859 47.9375C16.0939 30.3295 30.4271 16 48.0391 16ZM33.9062 29.5C33.2383 29.5 32.1582 29.75 31.2422 30.75C30.3262 31.746 27.7422 34.1583 27.7422 39.0703C27.7422 43.9823 31.3203 48.7304 31.8203 49.3984C32.3163 50.0624 38.727 60.4609 48.875 64.4609C57.307 67.7849 59.0196 67.1289 60.8516 66.9609C62.6836 66.7969 66.7617 64.5507 67.5938 62.2188C68.4257 59.8867 68.4277 57.8807 68.1797 57.4688C67.9317 57.0528 67.2656 56.8047 66.2656 56.3047C65.2696 55.8047 60.3613 53.3945 59.4453 53.0625C58.5293 52.7305 57.8593 52.5625 57.1953 53.5625C56.5313 54.5625 54.6231 56.8047 54.0391 57.4688C53.4551 58.1368 52.875 58.2266 51.875 57.7266C50.875 57.2226 47.6598 56.1656 43.8438 52.7656C40.8757 50.1216 38.8731 46.8594 38.2891 45.8594C37.7091 44.8634 38.2344 44.3163 38.7344 43.8203C39.1824 43.3723 39.7266 42.6543 40.2266 42.0703C40.7226 41.4863 40.8946 41.0702 41.2266 40.4062C41.5586 39.7422 41.3886 39.1562 41.1406 38.6562C40.8926 38.1562 38.9505 33.226 38.0625 31.25C37.3145 29.59 36.5245 29.5514 35.8125 29.5234C35.2325 29.4994 34.5702 29.5 33.9062 29.5Z" fill="white"/>
</svg>
